<?xml version="1.0" encoding="UTF-8" standalone="no"?>
<svg
   xmlns:dc="http://purl.org/dc/elements/1.1/"
   xmlns:cc="http://creativecommons.org/ns#"
   xmlns:rdf="http://www.w3.org/1999/02/22-rdf-syntax-ns#"
   xmlns:svg="http://www.w3.org/2000/svg"
   xmlns="http://www.w3.org/2000/svg"
   id="svg19097"
   version="1.1"
   viewBox="0 0 210 297"
   height="297mm"
   width="210mm">
  <defs
     id="defs19091" />
  <metadata
     id="metadata19094">
    <rdf:RDF>
      <cc:Work
         rdf:about="">
        <dc:format>image/svg+xml</dc:format>
        <dc:type
           rdf:resource="http://purl.org/dc/dcmitype/StillImage" />
        <dc:title></dc:title>
      </cc:Work>
    </rdf:RDF>
  </metadata>
  <g
     id="layer1">
    <g
       transform="matrix(0.5502813,0,0,0.5502813,70.699346,-4.9445276)"
       id="g20680">
      <path
         id="path20427"
         style="fill:#000000;stroke-width:0.18932059"
         d="m 223.40776,144.61378 c 4.67305,-2.38401 8.4265,-6.58764 9.81586,-10.99317 1.15611,-3.66595 0.89463,-7.02609 -0.82303,-10.57536 -0.83719,-1.72996 -3.35791,-4.2498 -5.08492,-5.08319 -1.09869,-0.53017 -3.71131,-1.26224 -3.88499,-1.08856 -0.0863,0.0863 -0.74725,6.90268 -1.01153,10.43147 -0.3753,5.01134 -0.28081,17.70146 0.13193,17.70146 0.0478,0 0.43348,-0.17665 0.85679,-0.39265 z m -9.32669,23.10985 c -0.1686,-0.0984 -0.39977,-0.41537 -0.51378,-0.70418 -0.30807,-0.78041 -1.27295,-6.4501 -1.81305,-10.65378 -0.98747,-7.68528 -1.14161,-10.30448 -1.14753,-19.50003 -0.007,-9.03334 0.12008,-11.49378 0.94941,-18.55341 0.60524,-5.15202 0.10577,-4.733 5.64167,-4.733 4.46083,0 7.86882,0.30871 9.49561,0.86019 5.54317,1.87906 9.38315,6.81092 10.12215,13.00029 0.63256,5.2981 -1.43021,10.85876 -5.57336,15.02413 -1.66898,1.67793 -4.08132,3.54451 -5.80238,4.4897 -0.60962,0.3348 -1.10942,0.65505 -1.11065,0.71167 -0.007,0.27792 3.92935,4.22687 5.28202,5.30018 2.82914,2.24492 4.88628,2.95742 6.26428,2.1697 0.72192,-0.41269 1.47087,-0.34491 1.99648,0.18068 1.396,1.39604 -0.55238,3.13854 -3.49744,3.12792 -2.41567,-0.009 -5.275,-1.71298 -9.11342,-5.43186 -2.29836,-2.22679 -2.42484,-2.31985 -2.34308,-1.72452 0.0474,0.34612 0.25857,1.96273 0.46903,3.59247 0.21042,1.62973 0.64428,4.44115 0.96404,6.24758 0.82663,4.66974 0.84403,4.90403 0.40421,5.4472 -0.34681,0.42827 -0.61661,0.48017 -4.61075,0.88689 -4.74333,0.48299 -5.62058,0.52091 -6.06346,0.26216 z m -34.19342,0.42058 c -0.85579,-0.13372 -1.09143,-0.77372 -1.62876,-4.42359 -1.72803,-11.73765 -2.44237,-20.04545 -2.78547,-32.39482 -0.11046,-3.9754 -0.22293,-7.2501 -0.24995,-7.27711 -0.0872,-0.0872 -3.07732,5.82 -4.47513,8.84122 -1.75916,3.80226 -3.00159,6.77813 -4.3477,10.41378 -1.25178,3.3808 -1.75847,4.4481 -2.19046,4.61388 -0.5026,0.19298 -1.31729,0.13461 -1.66281,-0.11873 -0.9186,-0.67364 -4.88829,-12.89622 -6.50238,-20.02065 l -0.53614,-2.3665 -0.12835,1.04127 c -0.0704,0.57268 -0.18872,3.63967 -0.2624,6.81554 -0.22649,9.74828 0.46924,18.42991 2.28669,28.53469 0.69732,3.87683 0.68538,4.36675 -0.11672,4.79599 -0.22877,0.12231 -2.50113,0.42248 -5.04972,0.66677 -4.07347,0.39044 -4.69677,0.41155 -5.1551,0.17464 -0.28675,-0.14825 -0.57042,-0.39744 -0.63037,-0.55368 -0.21086,-0.54929 -1.24623,-6.67851 -1.71343,-10.14259 -1.75925,-13.04362 -1.83412,-26.25065 -0.22205,-39.17733 0.39051,-3.13148 0.47998,-3.52659 0.86981,-3.84226 0.40346,-0.32671 0.79741,-0.34786 5.50972,-0.29599 4.84899,0.0534 5.09272,0.0733 5.46867,0.44963 0.32108,0.3213 0.48029,1.0002 0.86491,3.68829 0.84423,5.89987 2.25056,12.22991 4.03526,18.16308 1.09042,3.62512 2.12722,6.48881 2.28368,6.30766 0.0736,-0.0852 0.67294,-1.47525 1.33213,-3.0892 3.36616,-8.24172 10.04222,-21.53498 11.31995,-22.54005 0.5657,-0.44498 1.23811,-0.37011 1.82182,0.20281 0.34887,0.3425 0.36564,0.76335 0.40122,10.06938 0.0528,13.83566 0.56248,20.86873 2.38414,32.90373 0.88944,5.8763 0.98868,7.54192 0.48268,8.10164 -0.38541,0.42635 -0.78162,0.55575 -1.40388,0.45846 z m -38.24272,0 c -0.85581,-0.13372 -1.09145,-0.77372 -1.62878,-4.42359 -1.72801,-11.73765 -2.44237,-20.04545 -2.78547,-32.39482 -0.11046,-3.9754 -0.22294,-7.2501 -0.24995,-7.27711 -0.0872,-0.0872 -3.07732,5.82 -4.47513,8.84122 -1.75917,3.80226 -3.00159,6.77813 -4.34768,10.41378 -1.2518,3.3808 -1.75849,4.4481 -2.19046,4.61388 -0.50262,0.19298 -1.31731,0.13461 -1.66283,-0.11873 -0.9186,-0.67364 -4.88829,-12.89622 -6.50238,-20.02065 l -0.53612,-2.3665 -0.12835,1.04127 c -0.0704,0.57268 -0.18872,3.63967 -0.26242,6.81554 -0.2265,9.74828 0.46926,18.42991 2.28671,28.53469 0.6973,3.87683 0.68538,4.36675 -0.11672,4.79599 -0.22877,0.12231 -2.50113,0.42248 -5.0497,0.66677 -4.07351,0.39044 -4.69682,0.41155 -5.15514,0.17464 -0.28676,-0.14825 -0.5704,-0.39744 -0.63037,-0.55368 -0.21086,-0.54929 -1.24621,-6.67851 -1.71341,-10.14259 -1.75928,-13.04362 -1.83414,-26.25065 -0.22205,-39.17733 0.39051,-3.13148 0.47998,-3.52659 0.86981,-3.84226 0.40348,-0.32671 0.79741,-0.34786 5.50972,-0.29599 4.84901,0.0534 5.09277,0.0733 5.46872,0.44963 0.32105,0.3213 0.48026,1.0002 0.86491,3.68829 0.8442,5.89987 2.25053,12.22991 4.03523,18.16308 1.09042,3.62512 2.12722,6.48881 2.28368,6.30766 0.0736,-0.0852 0.67296,-1.47525 1.33216,-3.0892 3.36613,-8.24172 10.04219,-21.53498 11.31992,-22.54005 0.56571,-0.44498 1.23812,-0.37011 1.82182,0.20281 0.34887,0.3425 0.36564,0.76335 0.40122,10.06938 0.053,13.83566 0.5625,20.86873 2.38414,32.90373 0.88944,5.8763 0.98868,7.54192 0.48268,8.10164 -0.38541,0.42635 -0.78162,0.55575 -1.40385,0.45846 z m -58.645828,0.13446 c -2.41979,-0.19879 -4.32483,-1.01037 -6.4397,-2.74335 -3.52575,-2.88909 -7.21607,-11.45912 -8.59532,-19.9609 -0.73035,-4.50188 -0.86208,-6.40605 -0.84479,-12.21118 0.0179,-5.75099 0.295,-9.64334 1.13445,-15.88992 0.48643,-3.61983 0.19319,-3.4221 5.65797,-3.81502 6.32698,-0.45493 8.16049,-0.18671 8.86436,1.29658 0.40663,0.85689 0.39954,1.40926 -0.0525,4.09362 -1.04976,6.23419 -1.41031,11.99533 -1.27498,20.37299 0.13752,8.51122 0.77817,14.95817 1.94712,19.59376 0.6361,2.52238 1.02281,3.39561 1.88613,4.25894 1.92181,1.92183 3.97703,1.55198 6.98483,-1.25697 3.75009,-3.50217 6.25286,-9.28127 7.65382,-17.67338 0.723058,-4.33129 0.874868,-6.62896 0.869408,-13.15779 -0.004,-6.60705 -0.24433,-9.96391 -1.037738,-14.58801 -0.46794,-2.72756 -0.21578,-3.39744 1.278898,-3.39744 0.49431,0 1.3683,0.57549 1.37686,0.90666 0.002,0.074 0.12679,0.83208 0.27768,1.68458 1.10019,6.21934 1.53533,15.38765 1.03662,21.84059 -1.5945,20.63153 -9.016888,31.60804 -20.723138,30.64624 z m 102.950218,0.83783 c -0.81836,-0.33199 -1.68906,-3.50873 -2.52508,-9.21243 -1.37447,-9.37741 -1.78716,-15.85416 -1.63584,-25.67324 0.11046,-7.16184 0.32335,-10.36921 1.16854,-17.59538 0.31786,-2.71772 0.43528,-3.0856 1.13016,-3.54091 1.10875,-0.7265 12.63587,-1.27205 18.08929,-0.8561 4.35021,0.33176 7.01911,0.7303 7.57283,1.13076 0.59193,0.42811 0.74886,1.58955 0.28412,2.10307 -0.50202,0.55474 -1.35131,0.59 -4.54694,0.18872 -2.8977,-0.36385 -7.93879,-0.75443 -9.75595,-0.75584 h -0.86095 l -0.23417,1.84588 c -0.40549,3.1966 -0.77198,7.03662 -0.98018,10.27063 -0.22204,3.44996 -0.27832,15.94845 -0.0754,16.75708 0.11694,0.46575 0.18939,0.5018 0.81272,0.40442 0.3764,-0.0588 1.475,-0.16547 2.44134,-0.23703 1.6678,-0.12365 1.78069,-0.10778 2.22451,0.3091 0.56454,0.53037 0.62203,1.46578 0.12768,2.07634 -0.29505,0.36435 -0.66018,0.45312 -2.76544,0.67232 -1.33399,0.13886 -2.47235,0.29937 -2.52962,0.35663 -0.3639,0.36392 1.96841,17.32957 2.44832,17.80947 0.12298,0.12299 4.91352,-0.73768 7.97608,-1.43294 3.56269,-0.80883 4.28992,-0.87034 4.85737,-0.41083 0.33805,0.27374 0.46294,0.56132 0.46294,1.06609 0,1.02522 -0.52622,1.43305 -2.3801,1.8446 -8.04609,1.7862 -20.01482,3.40417 -21.30621,2.88024 z M -68.116256,36.549705 c -0.395586,-0.0052 -0.555064,0.16509 -1.070734,0.958083 -1.118026,1.719313 -5.858706,9.565439 -7.699788,12.743407 -0.965174,1.666007 -1.821286,3.103695 -1.902727,3.195154 -0.08172,0.09181 -0.37764,-0.01419 -0.660424,-0.236678 -0.283969,-0.223428 -0.786535,-0.402558 -1.12758,-0.402558 -1.083823,0 -1.30493,0.641297 -2.347145,6.815087 -0.307613,1.822196 -0.616905,3.78207 -0.687295,4.354772 -0.213162,1.734319 -0.363757,1.687123 -1.003041,-0.312124 -1.832022,-5.729325 -2.85482,-8.635227 -3.156397,-8.968446 -0.186595,-0.206076 -0.528733,-0.375172 -0.760158,-0.375172 -0.892641,0 -0.940861,0.284412 -0.938962,5.567104 0.0016,4.660931 0.03221,5.09022 0.535369,7.59075 0.910918,4.527013 1.670952,7.30291 2.682523,9.797335 0.07471,0.184185 0.05045,0.331245 -0.05478,0.331245 -0.432863,0 -3.222167,-5.204663 -4.971272,-9.276434 -0.335473,-0.780949 -0.84804,-1.931159 -1.138949,-2.555917 -1.257424,-2.700436 -3.62295,-8.180806 -4.726845,-10.951787 -0.938974,-2.356996 -1.292931,-3.045357 -1.651061,-3.208589 -0.626435,-0.285411 -1.073488,0.02866 -1.150318,0.80822 -0.07712,0.782445 0.611545,4.979429 1.226283,7.474995 1.185643,4.813208 3.212772,9.698487 5.727816,13.802257 0.437777,0.714314 0.757828,1.337167 0.711068,1.383895 -0.04676,0.04676 -0.541303,-0.04412 -1.099159,-0.201538 -1.17607,-0.33192 -4.615775,-0.941967 -7.072948,-1.254702 -1.4768,-0.187942 -2.11591,-0.164256 -4.79816,0.179316 -5.09832,0.653023 -6.46627,1.088834 -6.46627,2.060339 0,0.694301 0.54077,0.981036 3.5972,1.906344 4.11409,1.245492 5.05324,1.470036 7.19439,1.722374 3.229913,0.380649 5.653531,1.031833 7.84241,2.106332 1.37309,0.674042 3.516582,2.088349 3.516582,2.320272 0,0.09403 -0.389215,0.09435 -0.89917,0.0016 -0.494602,-0.08988 -1.623301,-0.163298 -2.508374,-0.163298 -1.325603,0 -1.943095,0.112321 -3.502629,0.637172 -3.228448,1.086483 -3.945589,1.711365 -3.414262,2.975012 0.338867,0.805948 1.569045,1.398014 5.68906,2.738851 4.696722,1.528556 6.749359,2.231202 6.869348,2.351278 0.144211,0.144227 0.392173,1.784027 0.405143,2.67839 0.011,0.759526 -0.0109,0.787101 -0.887801,1.110525 -2.915508,1.075372 -8.03964,4.643049 -9.717755,6.765999 -0.608136,0.76934 -0.742071,1.08961 -0.742071,1.7694 0,0.74501 0.06273,0.8627 0.614947,1.14825 0.550328,0.28469 1.154644,0.30543 5.726785,0.1943 2.811422,-0.0682 5.54995,-0.17778 6.085416,-0.24288 1.072589,-0.13054 1.051692,-0.15104 1.307412,1.29295 l 0.124542,0.70073 -0.972553,0.12919 c -1.329981,0.17643 -1.906341,0.65749 -1.906341,1.59215 0,0.8171 0.376767,1.38068 2.869592,4.28914 0.816575,0.95273 1.48518,1.82531 1.48518,1.93891 0,0.11366 -0.311915,0.61193 -0.692981,1.10742 -0.846645,1.10091 -1.754127,3.02896 -2.411222,5.1232 -0.772816,2.46303 -0.640805,3.25613 0.542602,3.25613 0.421156,1e-5 1.393061,-0.53783 3.522782,-1.94975 3.197894,-2.12013 4.062555,-2.56853 4.426603,-2.29495 0.127524,0.0958 0.820754,0.61931 1.539957,1.16324 0.719209,0.5439 1.882683,1.26411 2.58589,1.60093 0.86651,0.41503 1.195763,0.65936 1.021127,0.75706 -0.141732,0.0793 -1.015563,0.27348 -1.941483,0.43202 -4.190045,0.71708 -6.515243,1.57778 -9.275403,3.43338 -2.175412,1.46246 -3.293856,2.53271 -3.293856,3.15226 0,0.67752 0.469707,1.08934 1.243851,1.08934 0.904161,0 0.805702,0.3056 -0.458369,1.41955 -2.51896,2.21979 -4.572204,5.08539 -6.714837,9.37152 -2.608688,5.21842 -4.104658,8.79795 -4.104658,9.82214 0,1.03472 0.758685,1.33446 2.212268,0.87334 l 0.413412,-0.13126 -0.481108,1.39113 c -1.177676,3.40797 -2.052815,7.6385 -2.696993,13.03486 -0.318931,2.67174 -0.623279,6.90941 -0.556038,7.74268 0.131123,1.62511 1.068187,1.53293 3.006535,-0.29559 0.731118,-0.6897 1.383988,-1.19935 1.450557,-1.13275 0.06658,0.0666 -0.02311,1.5058 -0.198954,3.19826 -0.384347,3.69917 -0.677897,8.99313 -0.684196,12.33878 -0.0037,2.01426 0.05118,2.50736 0.309025,2.79259 0.499869,0.55205 1.122548,0.41025 2.60966,-0.59324 1.687628,-1.13881 5.494385,-2.50138 7.094656,-2.53938 l 1.024744,-0.0243 0.631487,1.07332 c 0.485174,0.82475 0.764336,1.10293 1.206127,1.19993 0.655653,0.14403 0.836049,0.0624 4.348054,-1.96577 2.168072,-1.25209 3.391241,-2.12516 7.072436,-5.05034 0.713746,-0.56716 1.407592,-1.03146 1.542026,-1.03146 0.134443,0 0.512879,0.41815 0.840775,0.92914 0.687125,1.07078 1.612368,1.61133 2.417424,1.41231 1.085977,-0.26857 5.150741,-2.62732 8.290451,-4.81107 1.041262,-0.72424 1.997797,-1.31671 2.125967,-1.31671 0.128175,-3e-5 0.286694,0.21449 0.352433,0.47645 0.150352,0.59904 0.933463,1.22732 1.529106,1.22732 1.200753,0 3.685712,-1.8176 7.4905,-5.47874 2.441292,-2.34914 3.874243,-3.60857 4.105693,-3.60857 0.07612,1e-5 0.338725,0.2134 0.583425,0.47388 0.876424,0.93295 2.360845,0.95795 3.503146,0.0594 0.716839,-0.56387 2.550933,-2.90816 3.12229,-3.99097 0.260138,-0.49301 0.572124,-0.89659 0.693497,-0.89659 0.121372,0 0.66059,0.55265 1.197861,1.22783 1.479423,1.85922 3.707744,3.81743 5.18573,4.55683 1.689185,0.84562 2.458898,0.84451 6.743773,-0.007 1.82221,-0.36222 3.531802,-0.65997 3.799252,-0.66197 0.9416,-0.006 2.39037,0.56786 4.066935,1.6123 2.8480491,1.77424 4.2339755,2.36007 5.5831214,2.36007 0.6425821,0 1.6918516,-0.13595 2.3316406,-0.30231 1.6334131,-0.42454 2.3919899,-0.26477 5.42705886,1.14308 3.75192204,1.7404 4.78220084,2.0326 7.18974194,2.0438 1.5648799,0.007 2.2266102,-0.0774 3.1098872,-0.39429 2.345803,-0.84166 4.026671,-2.47844 5.46685,-5.3237 2.096873,-4.1427 2.416977,-5.66297 2.272213,-10.79366 -0.09191,-3.25766 -0.05433,-3.98718 0.315743,-6.15673 0.230894,-1.35365 0.479521,-2.56854 0.552421,-2.69957 0.154322,-0.27744 1.184945,0.40356 1.699121,1.12241 0.515944,0.72132 2.070287,3.56092 2.884062,5.26893 1.842535,3.86719 2.185698,4.46454 3.186885,5.54798 2.109269,2.28254 4.227595,3.20933 7.396449,3.23753 2.507083,0.0222 2.90631,-0.16043 6.201171,-2.84324 l 0.616501,-0.50178 1.342035,0.59997 c 4.110297,1.83786 11.755332,1.42493 16.357658,-0.88367 3.170068,-1.59014 6.176515,-4.78413 7.280175,-7.7339 0.602781,-1.61112 1.010097,-4.31359 0.866097,-5.74848 -0.55441,-5.52551 -3.705865,-10.06005 -10.93008,-15.72824 l -2.706812,-2.12391 -0.01809,-3.24011 c -0.01556,-2.75694 -0.08234,-3.46596 -0.447003,-4.75474 -0.524182,-1.85255 -1.320442,-3.50088 -2.224669,-4.60438 -0.861547,-1.05139 -3.620246,-3.35432 -5.146456,-4.29637 -0.642233,-0.39639 -1.136994,-0.81319 -1.099674,-0.92656 0.131665,-0.40032 1.673053,-1.42942 2.45773,-1.64073 1.147609,-0.30903 2.248662,-0.12191 3.803386,0.64647 2.417021,1.19455 4.453556,3.61361 5.279265,6.27042 0.546286,1.75775 0.571775,4.38098 0.06098,6.28644 -0.345593,1.28921 -0.347228,1.381 -0.03721,1.85415 0.434166,0.66265 1.088689,0.89708 1.806091,0.64699 0.696773,-0.2429 1.188109,-1.42148 1.530141,-3.66954 0.657098,-4.31883 -0.792982,-8.50496 -4.076239,-11.76776 -1.277464,-1.26951 -1.87274,-1.69879 -3.331062,-2.40192 -2.647879,-1.27666 -4.668068,-1.53661 -7.510653,-0.96583 -1.648016,0.33091 -4.1885,1.46537 -5.614643,2.50682 -0.920459,0.67214 -1.03018,0.70248 -2.944006,0.81184 -2.120765,0.12131 -2.184649,0.14327 -5.30252,1.82159 -1.58655,0.85403 -5.673534,2.51819 -6.184118,2.51819 -0.238785,0 -0.09672,-0.23895 0.51418,-0.8661 1.313801,-1.34877 2.967804,-2.52502 4.724775,-3.35948 0.885074,-0.42036 2.035286,-1.03089 2.555917,-1.35651 0.520632,-0.32561 1.500307,-0.83277 2.17713,-1.12706 2.539865,-1.1043 4.200368,-2.49299 6.58926,-5.51077 1.95798,-2.47338 2.908636,-5.87689 2.50114,-8.953462 -0.476125,-3.59475 -2.532615,-7.697805 -4.782653,-9.541536 C 38.41425,89.286998 38.237421,88.996737 37.951681,87.941134 37.281989,85.467079 35.295318,83.384488 31.992357,81.695005 29.676303,80.510311 29.212327,80.104898 28.29594,78.46626 27.465011,76.980415 26.438755,76.048159 24.736468,75.23235 22.604747,74.21022 21.0289,73.937593 18.790578,74.201404 12.389844,74.955832 7.5669727,77.09077 2.9558859,81.211312 c -2.952383,2.638295 -4.4773183,4.667374 -6.4151123,8.534881 l -1.175122,2.344558 -0.3183268,-1.805056 c -0.1751809,-0.992818 -0.5330293,-2.336533 -0.7953002,-2.985866 -0.4544232,-1.125034 -0.4608753,-1.188865 -0.1312582,-1.365289 0.5154851,-0.275977 0.8428667,-0.226986 1.2133625,0.182417 0.7277182,0.804113 2.3303988,0.641178 3.0220378,-0.307475 0.45651,-0.626169 0.6134193,-2.145332 0.2997233,-2.902665 -0.131011,-0.316293 -0.4845117,-0.750583 -0.7854817,-0.9648 -1.0677329,-0.760307 -2.9985314,0.04592 -3.2902385,1.374076 -0.065586,0.298583 -0.2947775,0.636958 -0.5095295,0.751893 -0.376192,0.201314 -0.386049,0.175239 -0.2651001,-0.711583 0.069045,-0.506294 0.358008,-1.726251 0.642338,-2.710948 0.4483089,-1.552593 0.5801913,-1.805982 0.9906373,-1.909961 0.3940738,-0.09986 0.6038548,0.0252 1.2541869,0.748792 0.7644,0.851157 0.8056818,0.869199 1.9254638,0.869199 0.95919697,0 1.22590925,-0.07659 1.65054524,-0.473358 1.38064606,-1.290032 1.37044306,-3.050985 -0.0242879,-4.148066 -0.73257198,-0.576231 -2.49353304,-0.557062 -3.22977694,0.03514 -1.2529201,1.007798 -1.1978598,0.986409 -1.1978598,0.456819 0,-0.359717 0.4477181,-0.924637 1.7430461,-2.200381 0.958505,-0.944025 1.82685098,-1.716174 1.92959798,-1.716174 0.26396199,0 1.62832432,1.496433 1.62832432,1.785937 0,0.13195 0.2130401,0.640577 0.4733561,1.130162 0.260314,0.489591 0.4733562,1.021877 0.4733562,1.182876 0,0.682448 0.6498594,1.63399 1.3017292,1.906344 2.033979,0.849863 3.7812649,-1.564336 2.317688,-3.20239 -0.482193,-0.539562 -0.6628939,-0.611867 -1.5461588,-0.618566 -1.215935,-0.0089 -1.4071835,-0.329417 -0.4635375,-0.777214 2.8952427,-1.373862 1.6351977,-6.144178 -1.6221233,-6.139677 -1.204662,0.0013 -2.63514829,1.308245 -2.63704829,2.408639 -4.5799e-4,0.272106 -0.19388692,0.52056 -0.54621991,0.7028 -0.299898,0.155072 -0.810987,0.50592 -1.135848,0.77928 -0.708423,0.59609 -0.744844,0.402672 -0.2149739,-1.137399 0.602301,-1.750621 2.34655601,-3.133775 5.08031,-4.028694 1.526892,-0.499806 1.5922756,-0.505378 2.1450886,-0.188103 0.3136241,0.179914 0.912705,0.327112 1.3311848,0.327112 0.6128782,0 0.8860766,-0.125412 1.4045655,-0.643887 0.52748,-0.527489 0.6438884,-0.78672 0.6438884,-1.43764 0,-0.436883 -0.1427205,-1.035505 -0.3167766,-1.33015 -0.3832508,-0.648796 -1.5673782,-1.222918 -2.196765,-1.065051 -0.724077,0.181726 -1.4449401,0.853418 -1.6133381,1.503267 -0.1226241,0.473218 -0.3124581,0.653915 -0.901237,0.856279 -0.6744731,0.231923 -3.18039231,1.1729 -3.53621832,1.328084 -0.22970699,0.100153 -0.16923932,-0.363609 0.15864665,-1.222148 C -0.02734306,63.75874 0.12316746,63.61441 0.67437145,63.511103 1.8794604,63.284763 3.0280324,61.749907 3.4659382,59.780847 3.6124583,59.12201 5.523734,57.830465 6.6088989,57.656946 9.4024237,57.210224 8.9219711,53.570221 6.0688801,53.565721 5.3786552,53.56467 5.1375812,53.672268 4.5800822,54.229764 3.9403231,54.869526 3.9196734,54.933257 4.0400634,55.896845 4.1563954,56.827922 4.1324932,56.91625 3.7005492,57.147414 3.2716732,57.376948 3.1907818,57.346892 2.6556517,56.758292 1.9702188,56.004356 1.9531531,55.727282 2.501656,54.234415 2.8769982,53.212822 2.9790091,53.093085 3.5760091,52.971443 5.4748771,52.584738 5.589458,50.256238 3.7599773,49.228001 2.8474842,48.715138 2.0876945,48.725814 1.2903605,49.263143 0.22631148,49.980206 0.08137837,51.096875 0.93327637,52.011294 L 1.3311849,52.438143 0.96324869,53.42723 c -0.20231801,0.544036 -0.42877846,1.355643 -0.50332846,1.803506 -0.081321,0.488537 -0.22297255,0.784365 -0.35398355,0.738973 -0.22087799,-0.07634 -0.22325139,-0.351565 -0.0144694,-1.767332 0.101068,-0.685313 0.04527875,-0.859846 -0.45113524,-1.415418 -0.47243,-0.528698 -0.69802254,-0.634071 -1.36270754,-0.634071 -1.0544879,0 -1.7032553,0.6975 -1.7032553,1.830895 0,0.668743 0.1129335,0.884577 0.8128704,1.551327 1.399028,1.332677 1.3882199,1.297921 0.7720459,2.484604 -0.459658,0.885237 -0.615874,1.038907 -1.0107911,0.993738 -0.3704738,-0.04237 -0.5028594,-0.204886 -0.6392373,-0.784966 -0.104309,-0.443725 -0.4853916,-1.058098 -0.9678995,-1.561661 -0.6964262,-0.726768 -0.8958299,-0.83044 -1.603003,-0.83044 -2.015042,0 -3.0891908,2.210192 -2.0835937,4.287076 0.8331639,1.72108 2.6567677,2.082477 4.0633179,0.805635 0.5805109,-0.526973 1.3853239,-0.245729 1.6970539,0.59273 0.134218,0.361013 0.349343,0.912762 0.478007,1.22628 0.207726,0.506156 0.1676215,0.739646 -0.3586345,2.082562 -0.8789119,2.242799 -1.9859479,4.444799 -2.2014158,4.379061 -0.1041252,-0.03178 -0.267262,-0.277469 -0.3622519,-0.546222 -0.141559,-0.400458 -0.082902,-0.595408 0.3240111,-1.079003 0.9691172,-1.151731 0.8469445,-2.942944 -0.2640666,-3.877799 -0.7377779,-0.620734 -1.2788357,-0.752269 -2.5590169,-0.620117 -0.8918159,0.09204 -1.0973786,0.0479 -1.5399575,-0.332796 -0.4372729,-0.376129 -0.51367,-0.593373 -0.5286499,-1.509469 -0.01449,-0.889307 -0.1012836,-1.153917 -0.5141804,-1.566831 -1.2625703,-1.262552 -3.2426963,0.0044 -3.2426963,2.07481 0,0.836986 0.07432,1.016656 0.629936,1.513086 0.529691,0.473427 0.73872,0.545552 1.30793,0.453202 0.523005,-0.08486 0.771142,-0.02198 1.088823,0.276468 0.3857131,0.362379 0.3937655,0.422548 0.12609,0.959115 -0.463989,0.930095 -0.226465,2.153759 0.5730919,2.953308 0.5386809,0.53856 0.8457666,0.682535 1.6169556,0.756545 0.9330938,0.08966 0.9691314,0.116765 1.7880044,1.348237 0.7222749,1.086215 0.8089206,1.320334 0.6413044,1.72806 -0.1066559,0.259429 -0.3356276,0.812376 -0.5090128,1.228865 -0.1733849,0.416512 -0.4253375,1.037418 -0.5601724,1.379762 -0.1348261,0.342318 -0.3104171,0.597884 -0.3901572,0.567923 -0.079747,-0.02996 -0.494248,-0.520464 -0.9208741,-1.090372 -0.5909148,-0.789355 -0.775663,-1.20818 -0.775663,-1.757516 0,-1.637273 -0.9051825,-2.633432 -2.3926188,-2.633432 -0.965439,0 -1.962899,0.633217 -2.434994,1.546159 -0.376915,0.728848 -0.362592,2.165093 0.02791,2.761073 0.643454,0.982038 2.019062,1.298101 3.136242,0.72037 0.5685417,-0.294 0.6013902,-0.288848 0.9343101,0.14211 0.1898222,0.245743 0.621352,0.972942 0.9585979,1.616438 l 0.6128827,1.169956 -0.4454509,1.196824 c -0.244986,0.658098 -0.5766938,1.645835 -0.7374229,2.195216 -0.1607349,0.549381 -0.3611038,0.975561 -0.4449339,0.946711 -0.083835,-0.02876 -1.119848,-0.964576 -2.302185,-2.079459 -1.182338,-1.114927 -2.659261,-2.402527 -3.282487,-2.861323 -0.756442,-0.55685 -1.681294,-1.560076 -2.781742,-3.017903 -1.006594,-1.333482 -2.060382,-2.494585 -2.706295,-2.982249 -1.481924,-1.118862 -3.687707,-2.095825 -5.138704,-2.275829 -1.110736,-0.137763 -3.154386,0.02209 -3.888652,0.303858 -0.238319,0.09146 -0.472215,-0.24974 -1.069184,-1.557528 -2.105793,-4.613145 -3.965514,-7.069854 -5.351614,-7.069854 -0.505295,0 -0.815231,0.213587 -1.788519,1.230934 -0.647515,0.676812 -1.221142,1.230416 -1.274342,1.230416 -0.05318,0 -0.555196,-0.617607 -1.115692,-1.372527 -0.560502,-0.754919 -1.411396,-1.751017 -1.891359,-2.213303 -1.919911,-1.849048 -2.8331,-1.810546 -4.105693,0.172601 -0.336065,0.523732 -0.722688,0.951879 -0.859379,0.951879 -0.136695,0 -0.829903,-0.74512 -1.540473,-1.656229 -0.710568,-0.911108 -2.20616,-2.670947 -3.323312,-3.910356 -1.117153,-1.239385 -2.264739,-2.602135 -2.550232,-3.028754 -0.285493,-0.426622 -0.907505,-1.286754 -1.382345,-1.911512 -1.382508,-1.818999 -2.144606,-2.956274 -2.728515,-4.070553 -1.270598,-2.42466 -2.103059,-2.656938 -4.090191,-1.141532 -0.67682,0.516152 -1.378606,0.940663 -1.559595,0.945161 -0.23514,0.0049 -0.654378,-0.654873 -1.468125,-2.312004 -0.962255,-1.959557 -1.170038,-2.568754 -1.341522,-3.92844 -0.301744,-2.392418 -0.36454,-2.545892 -1.067633,-2.614311 -0.0679,-0.0066 -0.129009,-0.01114 -0.185521,-0.01189 z M 51.526569,146.2443 l 0.750858,0.84594 c 3.390107,3.82018 4.351796,9.80808 2.217955,13.81156 -1.219208,2.28749 -3.12809,3.86687 -5.376934,4.44883 -1.78345,0.4615 -3.649419,0.28546 -5.056021,-0.47646 l -0.503846,-0.27285 1.489316,-2.25103 c 2.261161,-3.4164 3.620341,-6.30701 4.638476,-9.86554 0.476668,-1.66601 1.085647,-3.75172 1.353405,-4.63486 z" />
      <path
         id="path20521"
         style="fill:#aad400;stroke-width:0.18932059"
         d="m -81.615167,94.901697 c 0.214059,-0.06977 0.167437,-0.157867 -0.189328,-0.357995 -0.665984,-0.373491 -3.435614,-1.446357 -3.518869,-1.363086 -0.03792,0.03801 -0.01722,0.506268 0.04615,1.040756 l 0.115091,0.971819 1.631485,-0.09951 c 0.897317,-0.05478 1.759275,-0.141097 1.915465,-0.192079 z m 28.508284,8.705533 c -0.917138,-2.45176 -1.456178,-4.459684 -1.796349,-6.691416 -0.376798,-2.47202 0.320129,-4.882168 2.163927,-7.483433 1.250793,-1.764639 4.962246,-5.204318 7.755415,-7.187533 3.311714,-2.351384 4.179595,-3.170121 6.881787,-6.492004 2.272532,-2.793701 3.801905,-4.270447 5.662961,-5.468018 0.546663,-0.351779 0.993933,-0.708365 0.993933,-0.792397 0,-0.25755 -1.575528,-3.658993 -2.160041,-4.663368 -0.659146,-1.132614 -1.830395,-2.690395 -2.113019,-2.81036 -0.111468,-0.0474 -0.619031,0.428342 -1.127918,1.057013 -1.091726,1.348708 -1.933344,1.796302 -2.685663,1.428334 -0.273047,-0.133493 -0.929396,-0.873364 -1.458551,-1.644003 -1.152935,-1.679132 -2.580614,-3.238723 -2.959613,-3.233089 -0.15089,0.0022 -0.615102,0.479637 -1.031595,1.060859 -0.838377,1.170001 -1.606677,1.674749 -2.288604,1.5036 -0.24709,-0.06194 -0.983366,-0.760532 -1.636164,-1.552257 -0.6528,-0.791703 -1.686828,-2.047122 -2.297839,-2.789788 -0.611011,-0.742643 -1.634473,-1.904349 -2.27436,-2.581565 -0.999293,-1.057549 -2.607618,-3.158963 -5.193932,-6.786338 -0.345267,-0.484243 -0.875824,-1.364114 -1.179017,-1.955242 -0.303193,-0.591149 -0.628542,-1.122574 -0.722995,-1.180957 -0.09445,-0.05836 -0.586226,0.222041 -1.09283,0.622902 -1.778016,1.407225 -2.667715,1.647379 -3.545417,0.956993 -0.6298,-0.495402 -3.149958,-5.492772 -3.149958,-6.246238 0,-0.322866 -0.09924,-0.552734 -0.23665,-0.548128 -0.219113,0.0067 -3.741654,5.696522 -7.260716,11.726644 -2.240694,3.839578 -2.697916,4.239879 -3.880755,3.397619 -0.647051,-0.460743 -0.599718,-0.543947 -1.030736,1.811999 -0.666108,3.640948 -1.116808,6.709305 -1.612896,10.980579 l -0.197892,1.703885 0.748095,1.987866 c 0.411451,1.093326 1.314637,3.56396 2.007077,5.490312 2.042844,5.683061 2.338385,6.344647 4.037984,9.039133 1.294526,2.052288 1.250064,1.716184 -0.193957,-1.466325 -1.95189,-4.301773 -3.684551,-12.414414 -3.793591,-17.76231 -0.03551,-1.741809 7e-5,-1.983417 0.327654,-2.22451 0.603417,-0.444128 0.957586,-0.319042 1.927839,0.680772 1.436677,1.480435 2.57703,3.340867 4.830199,7.880156 1.580799,3.184723 2.387309,5.096853 3.353814,7.951465 1.508699,4.455973 1.779085,5.021967 1.61459,3.379774 -0.06259,-0.624758 -0.19532,-1.4767 -0.294982,-1.893213 -0.286268,-1.196364 -0.423816,-11.477702 -0.178573,-13.347101 0.494688,-3.77064 0.787777,-5.784176 0.887816,-6.099373 0.281448,-0.886758 1.785495,-0.432746 1.785495,0.53896 0,0.682248 1.256799,7.150952 1.779203,9.157512 0.465161,1.786686 1.748043,5.792337 4.759728,14.861658 0.86444,2.603165 2.055639,6.309116 2.647111,8.235445 0.591469,1.926352 1.184426,3.758029 1.317678,4.070406 0.133247,0.31238 0.433395,1.03653 0.666981,1.60921 0.619152,1.51803 1.9327,4.18789 2.018281,4.1023 0.04045,-0.0405 -0.307383,-1.09183 -0.772951,-2.33643 z m -27.027717,9.56481 c 3.417117,-3.19655 6.747115,-5.08636 12.163017,-6.9027 2.407999,-0.80756 2.406152,-0.81163 -0.550668,-1.21568 -2.727627,-0.37276 -14.006683,0.0921 -14.506472,0.59792 -0.06438,0.0651 0.02587,0.6875 0.200576,1.38301 0.478809,1.90614 0.0072,2.56893 -1.828482,2.56893 -0.504538,0 -0.744958,0.0836 -0.744958,0.25934 0,0.32213 3.546778,4.47366 3.821983,4.47366 0.110082,0 0.760335,-0.52402 1.444995,-1.16448 z m 11.594239,8.93892 c 2.067918,-2.53452 6.575043,-5.15685 11.442211,-6.65732 1.584211,-0.48836 1.64685,-0.5261 0.891812,-0.53722 -1.805895,-0.0266 -4.76286,0.42517 -8.653955,1.32208 -3.448469,0.79486 -10.662844,3.39236 -10.832061,3.9 -0.08819,0.26457 1.46359,1.3864 2.968613,2.14613 1.238671,0.62527 3.063116,1.17604 3.237131,0.97721 0.0587,-0.0671 0.484496,-0.58496 0.946249,-1.15088 z m -22.130178,67.91673 c 0.958959,-0.46332 3.017489,-1.14988 4.984981,-1.66259 2.014075,-0.52485 2.725391,-0.40334 3.596497,0.61436 0.36477,0.42613 0.663216,0.88222 0.663216,1.01355 0,0.52136 0.43011,0.42642 1.933326,-0.42671 3.191093,-1.81111 4.42126,-2.63463 6.919015,-4.63189 2.573826,-2.05808 3.482106,-2.63181 4.166529,-2.63181 0.527223,0 1.246954,0.61837 1.872827,1.60903 0.295862,0.4683 0.65853,0.85161 0.805927,0.85181 0.551712,0 4.365332,-2.20364 7.464565,-4.31467 3.914573,-2.66638 4.363084,-2.7622 4.947852,-1.05699 0.138368,0.40352 0.375043,0.75876 0.525926,0.78949 0.477191,0.097 3.18849,-2.08219 6.242463,-5.01761 3.09996,-2.97965 4.457391,-4.03096 5.204717,-4.03096 0.258373,0 0.740967,0.28234 1.132509,0.66261 0.375255,0.36446 0.8641,0.66264 1.086325,0.66264 0.577327,0 1.989711,-1.52319 3.135932,-3.38192 1.116906,-1.81122 1.317108,-2.58264 0.87401,-3.36761 -0.167437,-0.29662 -0.388092,-0.77359 -0.490356,-1.05995 -0.247274,-0.6924 -0.415185,-0.65698 -0.862204,0.18202 -0.205898,0.38637 -0.814811,1.14444 -1.353136,1.68459 -1.29999,1.30439 -2.580125,1.79344 -5.029377,1.92136 -2.173547,0.1136 -3.598148,-0.12768 -5.500422,-0.93159 -0.750876,-0.31727 -1.841761,-0.77889 -2.424192,-1.02584 -0.582432,-0.24693 -1.902943,-0.61543 -2.934471,-0.81885 -1.031526,-0.20348 -2.252176,-0.55526 -2.712554,-0.78182 -1.169927,-0.57574 -2.542237,-2.03064 -4.044869,-4.28829 -2.054074,-3.0862 -3.323135,-4.02311 -6.664322,-4.92013 -2.775663,-0.74517 -3.969758,-1.6881 -4.752926,-3.75316 -0.452328,-1.1927 -0.4565,-3.98067 -0.0096,-6.43688 0.440381,-2.42053 0.405216,-5.04386 -0.09331,-6.96257 -0.357617,-1.37632 -0.391914,-1.88619 -0.295734,-4.39667 0.105274,-2.74782 0.595027,-5.86727 1.092629,-6.95939 0.123945,-0.27206 0.179087,-0.61521 0.122537,-0.76263 -0.109053,-0.28416 -0.02849,-0.29462 -4.301316,0.55926 -2.136444,0.42696 -4.308924,1.14992 -5.644128,1.8783 -1.329378,0.7252 -2.856551,1.80017 -2.867914,2.01868 -0.004,0.078 0.4551,0.14199 1.020356,0.14199 1.064649,0 1.622748,0.30677 1.622748,0.89197 0,0.3137 -0.184946,0.48726 -3.010927,2.82559 -3.695376,3.05771 -6.63871,7.74051 -10.07006,16.02135 l -0.530456,1.28013 0.836333,-0.49013 c 0.961765,-0.56364 1.531242,-0.49077 1.805671,0.23103 0.221639,0.58297 0.1544,0.88647 -0.874328,3.9464 -1.583625,4.71044 -2.757676,11.09334 -3.047008,16.56554 l -0.12513,2.3665 1.370105,-1.28876 c 1.174741,-1.10504 1.455069,-1.28051 1.966004,-1.2306 1.156665,0.11293 1.264102,0.96341 0.784646,6.21111 -0.467355,5.11526 -0.639662,7.90623 -0.64673,10.47543 l -0.0067,2.42927 0.675521,-0.4175 c 0.371537,-0.22962 1.019096,-0.58348 1.439023,-0.78638 z" />
      <path
         id="path20509"
         style="fill:#aad400;stroke-width:0.18932059"
         d="m -87.484103,82.989817 c 0,-0.05993 -0.657069,-1.160274 -1.460154,-2.445389 -1.344146,-2.15092 -1.55096,-2.388748 -2.603156,-2.993605 -1.435817,-0.825378 -2.595773,-1.200613 -4.852339,-1.569699 -0.979533,-0.160326 -2.292131,-0.377762 -2.916888,-0.483438 -2.24172,-0.379215 -9.06565,0.127679 -8.20476,0.609485 0.7689,0.43031 4.46003,1.343073 6.82682,1.688211 5.162005,0.752728 7.539721,1.572516 10.788417,3.719613 1.010711,0.668003 1.888978,1.297591 1.951709,1.399086 0.12285,0.198787 0.470351,0.254711 0.470351,0.0758 z m 12.781726,8.107609 c -2.900596,-4.375228 -3.893002,-6.049888 -4.645833,-7.839683 -1.158926,-2.755263 -5.702513,-15.3707 -7.012266,-19.469819 -0.648775,-2.030463 -1.252197,-3.772674 -1.340931,-3.871598 -0.272431,-0.303703 -0.179556,3.354127 0.135238,5.326497 1.04803,6.566309 2.50372,11.168991 5.305608,16.775556 1.192297,2.385797 2.060382,3.720037 4.028541,6.191901 1.51009,1.896567 4.70297,5.300984 4.971591,5.300984 0.08707,0 -0.561811,-1.086238 -1.441957,-2.413838 z m -16.094837,13.311724 c 1.874274,-0.051 4.046727,-0.17665 4.827675,-0.27904 5.010645,-0.65729 8.122944,-0.86882 12.779139,-0.86853 4.519576,0 6.002779,0.11136 7.998795,0.59924 1.605892,0.3925 -1.452696,-1.7346 -5.512744,-3.83387 -2.897647,-1.498214 -4.950846,-2.326365 -7.313726,-2.94996 -2.007485,-0.529814 -5.112291,-0.532408 -6.957444,-0.0067 -1.96089,0.559576 -4.765445,1.935497 -6.942503,3.40596 -2.163755,1.46149 -4.59409,3.65132 -4.400317,3.96484 0.07963,0.1288 0.51744,0.18179 1.121977,0.13573 0.545259,-0.0416 2.524874,-0.11739 4.399148,-0.16837 z m 39.206654,6.09363 c -2.712907,-3.90532 -4.633881,-8.08719 -6.457184,-14.057055 -0.477034,-1.561895 -2.005663,-6.290176 -3.396956,-10.507292 -3.421194,-10.369908 -4.124221,-12.721069 -4.755175,-15.902929 -0.564941,-2.848955 -0.740468,7.235967 -0.204288,11.737891 0.374198,3.141879 0.943861,6.708701 1.466491,9.182041 0.923287,4.369481 3.040916,9.326244 5.297739,12.400504 1.745132,2.37721 7.909932,8.31816 8.64104,8.32724 0.126673,0.002 -0.139576,-0.52962 -0.59166,-1.1804 z" />
      <path
         id="path20501"
         style="fill:#88aa00;stroke-width:0.18932059"
         d="m -91.353479,72.41656 c -0.475002,-1.003033 -0.86364,-1.854484 -0.86364,-1.892095 0,-0.03757 -0.731608,-1.717838 -1.625795,-3.733789 -0.894186,-2.015952 -1.804691,-4.07005 -2.023343,-4.564646 -0.218643,-0.494597 -0.460765,-0.899258 -0.538028,-0.899258 -0.280888,0 1.037778,3.91983 2.197274,6.53156 0.561607,1.264989 3.554638,6.544485 3.653904,6.445203 0.03479,-0.03488 -0.325368,-0.883941 -0.800372,-1.886975 z m 17.500458,24.049513 c 0,-0.04092 -1.086227,-0.886557 -2.413838,-1.879282 -1.32761,-0.992748 -2.66406,-2.066822 -2.96989,-2.386848 -0.305827,-0.320049 -0.693114,-0.581893 -0.860634,-0.581893 -0.167526,0 -1.111025,-0.788035 -2.096673,-1.7512 -1.997088,-1.951553 -3.389484,-2.86047 -5.373352,-3.507656 -1.773145,-0.578427 -5.066246,-1.057594 -6.218171,-0.904781 -1.040204,0.137966 -3.509598,0.989394 -3.894131,1.342626 -0.315491,0.289839 0.111379,0.457142 6.030553,2.363682 2.342842,0.754629 5.069059,1.663927 6.058258,2.02067 3.985025,1.437166 7.194184,3.060866 7.194184,3.639941 0,0.221818 0.563306,0.493389 2.035197,0.981434 2.045505,0.6782 2.508497,0.800624 2.508497,0.663307 z m 8.522438,1.894421 c -1.040964,-2.052354 -1.753517,-3.969717 -2.646391,-7.121077 -0.958364,-3.382503 -3.71652,-11.618239 -4.501667,-13.441754 -1.259312,-2.924847 -3.922156,-8.094216 -4.729849,-9.182064 -0.86412,-1.163852 -0.939836,-0.971863 -0.627741,1.591724 0.804006,6.604188 2.119452,11.358006 4.432199,16.01717 0.774734,1.560755 1.610731,3.135909 1.857772,3.500366 0.247041,0.364435 0.694809,1.088586 0.99504,1.60921 1.524762,2.644108 5.976252,9.182061 6.251781,9.182061 0.03421,0 -0.429804,-0.970027 -1.031144,-2.155636 z m -18.407779,24.167126 c 0.282684,-0.18045 1.025137,-0.70107 1.649895,-1.15662 1.377804,-1.00469 3.316441,-1.99507 6.394389,-3.26666 4.980933,-2.05778 6.602173,-2.57796 12.599207,-4.04274 1.531657,-0.3741 5.57996,-0.85219 7.416626,-0.87585 0.780949,-0.0112 1.838434,-0.0747 2.349971,-0.14378 l 0.930066,-0.12544 -1.119385,-0.91757 c -0.615664,-0.50469 -2.078573,-1.84648 -3.250911,-2.9818 l -2.131524,-2.06423 -1.465568,-0.0425 c -3.318689,-0.0961 -4.426311,0.085 -7.997129,1.30821 -4.555098,1.56051 -7.636264,3.42014 -10.987632,6.63154 -2.853024,2.73388 -3.85559,4.17849 -4.833332,6.96444 -0.414263,1.18037 -0.377797,1.23873 0.445327,0.71292 z" />
      <path
         id="path20485"
         style="fill:#ffcc00;stroke-width:0.45492986"
         d="M 3.7579585,51.117478 C 3.6549676,50.804759 3.0749195,50.49161 2.4689866,50.421703 1.4021131,50.298648 1.395207,50.316381 2.2504133,50.990349 3.319733,51.832863 4.0128357,51.89127 3.757997,51.117682 Z m 2.7401279,4.793376 c 0.410511,-0.157643 0.375705,-0.40332 -0.07748,-0.547166 -0.526426,-0.167034 -0.838204,0.05456 -0.555667,0.394957 0.255175,0.307482 0.238807,0.303546 0.633147,0.152276 z m -11.973948,3.777326 c 0.455825,-0.41251 0.438459,-1.032908 -0.046175,-1.649012 -0.454991,-0.578427 -0.606764,-0.608546 -1.013997,-0.201246 -0.410006,0.410005 -0.372344,1.070854 0.094876,1.664843 0.461496,0.5867 0.511385,0.596271 0.965287,0.185594 z m 6.27717997,1.819736 c 0.29227903,-0.22989 0.62389703,-0.806081 0.81758303,-1.420508 0.30504,-0.967704 0.305689,-1.076019 0.01006,-1.695746 -0.18745,-0.393056 -0.453639,-0.661989 -0.65526703,-0.661989 -0.89549,0 -1.749074,1.290414 -1.749074,2.644198 0,1.470573 0.600056,1.902202 1.57659,1.134045 z m -7.11929797,5.3144 c 1.234061,-0.752437 0.903238,-2.087684 -0.517247,-2.087684 -0.799525,0 -1.702188,0.690677 -1.702188,1.302466 0,0.418726 0.833345,1.159089 1.303445,1.157993 0.168175,-3.8e-4 0.580374,-0.168152 0.91599,-0.372775 z m 9.51844,5.10649 c 0.808447,-0.808451 0.156547,-2.65048 -0.937998,-2.65048 -0.52896,0 -1.144528,0.657047 -1.144528,1.221677 0,1.391528 1.257233,2.254092 2.082526,1.428803 z m -13.8938204,0.65859 c 0.622647,-0.622634 0.551609,-1.298732 -0.14492,-1.379342 -0.808274,-0.09347 -1.437413,1.071793 -0.879712,1.629491 0.326115,0.326131 0.487865,0.286642 1.024641,-0.250149 z m 10.18578637,5.547309 c 0.14237,-0.407233 0.107264,-0.595286 -0.16784,-0.89928 -0.42191497,-0.46622 -0.80766397,-0.487821 -1.26819397,-0.07111 -0.428462,0.387757 -0.443329,0.887765 -0.03844,1.292672 0.466934,0.466914 1.25909797,0.29373 1.47448097,-0.322352 z M -13.273738,83.300228 c 0.318202,-1.181718 -0.07435,-1.736577 -0.648581,-0.916766 -0.347615,0.496295 -0.385241,1.306178 -0.07509,1.616343 0.313354,0.313363 0.499325,0.133493 0.723668,-0.699577 z m 10.3782784,0.68104 c -0.09043,-0.903596 -0.433697,-0.784391 -0.453768,0.157643 -0.01498,0.708029 0.02625,0.814019 0.246319,0.631376 0.148698,-0.123431 0.239499,-0.468747 0.20744,-0.788974 z m -1.144307,47.674222 c 0.878966,-0.26102 1.026488,-0.38892 1.58323,-1.37257 0.337671,-0.59661 0.80212,-1.26365 1.032111,-1.48236 0.54105097,-0.51445 0.409939,-1.30803 -0.317197,-1.91989 -0.504858,-0.42481 -1.919273,-2.9945 -2.423717,-4.40336 -2.969769,-8.29432 -3.542281,-10.54841 -4.279576,-16.84952 -0.389812,-3.33145 -0.650327,-9.987139 -0.551014,-14.077381 0.08797,-3.622992 -0.04524,-3.590815 -0.671922,0.162339 -0.8647124,5.178581 -1.2266494,10.822962 -1.0804394,16.849522 0.213097,8.78378 1.0157574,13.654 2.9630584,17.97879 0.652968,1.45018 0.639896,2.11212 -0.04512,2.28463 -0.607099,0.15295 -1.309883,1.30931 -1.238648,2.03816 0.0502,0.51365 0.163233,0.62775 0.815562,0.82337 1.072159,0.32148 3.07517,0.30638 4.213668,-0.0317 z M -10.828659,61.822767 c 0.540159,-1.407586 0.355707,-1.907072 -0.455617,-1.233741 -0.835171,0.693158 -1.03967,2.040788 -0.309671,2.040788 0.250567,0 0.594935,-0.363361 0.765288,-0.807047 z M 5.1919656,76.536092 C 4.752708,75.218315 3.2227522,74.999732 3.2227522,76.254886 c 0,0.618639 0.506329,1.125302 1.1252605,1.125302 0.6188941,0 0.9986821,-0.379409 0.8439529,-0.843935 z" />
      <path
         id="path20596"
         style="fill:#ff0066;stroke-width:0.18932059"
         d="m 52.133558,130.73894 c -0.256844,-3.58741 -1.244084,-5.84283 -3.453469,-7.8897 -1.628756,-1.50895 -3.489164,-2.90253 -4.27226,-3.20029 -0.465943,-0.17709 -0.533779,-0.14668 -0.71556,0.3224 -0.112318,0.28977 -0.16661,1.26899 -0.123185,2.22198 0.08481,1.86131 0.520414,3.18902 1.688067,5.14536 0.812244,1.36082 3.235439,3.93872 5.177848,5.50838 l 1.513618,1.22313 0.152522,-0.82677 c 0.0839,-0.45473 0.09848,-1.58175 0.0324,-2.50449 z M -9.9544366,84.414775 c 0.125577,-0.395606 -0.0022,-0.633702 -0.8334494,-1.552794 -0.963227,-1.06504 -1.080612,-0.329865 -0.163367,1.023158 0.689347,1.016853 0.820128,1.08635 0.9968164,0.529636 z m 3.49442,12.693587 c 0.270119,-1.947416 0.245239,-3.577086 -0.08841,-5.790772 -0.155586,-1.032193 -0.285958,-2.004503 -0.289737,-2.160692 -0.0049,-0.201918 -0.07095,-0.174637 -0.228756,0.09458 -0.270214,0.4611 -0.32123,10.197262 -0.05953,11.359232 0.167885,0.7454 0.172893,0.73502 0.32002,-0.662634 0.0822,-0.780947 0.238086,-2.058861 0.34641,-2.839808 z m 8.91752,31.099218 c 1.387122,-0.51054 1.467739,-0.51752 6.138596,-0.5308 5.1773866,-0.0156 5.5342256,-0.0702 7.9817046,-1.23816 1.51655,-0.72379 2.695806,-1.88049 5.081415,-4.98417 2.621244,-3.41028 4.542306,-5.07506 7.66733,-6.64455 0.97366,-0.48899 2.074864,-1.08029 2.447119,-1.31401 0.372254,-0.23371 1.230587,-0.66834 1.90741,-0.96587 2.076276,-0.91267 3.513921,-1.93214 4.912531,-3.48359 1.560524,-1.73106 2.443392,-3.12831 3.16208,-5.00437 1.482063,-3.86878 -0.274383,-9.659825 -3.991004,-13.158469 -0.991999,-0.933805 -1.322727,-1.491548 -1.515689,-2.556007 -0.316247,-1.744559 -2.321461,-3.739134 -5.247419,-5.219568 -2.292289,-1.159805 -2.958427,-1.738903 -3.956186,-3.4393 -0.893809,-1.52321 -1.76517,-2.315584 -3.392561,-3.085038 -1.207198,-0.570802 -1.298779,-0.584106 -3.886817,-0.564518 -2.22413,0.01789 -2.967375,0.102412 -4.620445,0.531402 -4.730873,1.22796 -8.6289046,3.456293 -12.1618296,6.952388 -2.35302303,2.328509 -3.96597203,4.780337 -5.649918,8.588409 -0.460449,1.041271 -0.951057,2.031626 -1.090238,2.200785 -0.736571,0.895322 -1.612415,6.507616 -1.975828,12.660876 -0.107622,1.82222 -0.198943,3.4835 -0.202945,3.69175 -0.02305,1.19974 1.571572,6.50817 3.2339,10.76545 0.822239,2.10577 0.941419,2.30024 1.686531,2.75199 1.01188397,0.61349 1.51789797,1.60939 1.66896697,3.28477 0.06337,0.70284 0.178796,1.27791 0.256475,1.27791 0.07768,0 0.77375803,-0.23279 1.54682603,-0.51731 z m -13.2667654,1.60961 c 0,-0.22658 0.367643,-0.75219 0.8481414,-1.2126 l 0.848141,-0.81265 -0.395511,-0.9061 c -2.1316034,-4.8834 -2.8486734,-9.93902 -2.8674674,-20.2168 -0.01386,-7.638999 0.292963,-11.519632 1.368108,-17.297346 l 0.400402,-2.151725 -0.766292,-1.014952 -0.766293,-1.014952 -0.612531,0.373491 c -0.33689,0.205494 -0.897826,0.373781 -1.246521,0.374184 -1.336408,0.0019 -2.216205,-1.800104 -1.740964,-3.565011 0.252054,-0.936042 1.179777,-2.065302 1.765728,-2.149266 0.41368,-0.05926 0.41366,-0.05948 -0.05644,-0.505151 -0.258647,-0.245207 -1.12448,-0.947311 -1.924074,-1.560195 -1.075449,-0.824327 -1.831602,-1.632733 -2.905419,-3.106214 -1.985127,-2.723958 -3.673324,-4.009005 -6.22853,-4.741139 -1.465994,-0.420023 -2.641704,-0.289661 -4.611112,0.511344 -2.278948,0.926896 -4.383311,2.692855 -6.84583,5.744956 -2.708762,3.357302 -4.055563,4.663033 -6.82669,6.618431 -5.169553,3.647813 -8.248594,6.885732 -9.479993,9.969093 -0.361457,0.905049 -0.394468,1.252691 -0.294558,3.101831 0.172669,3.195926 1.208115,6.272821 3.91818,11.643221 2.087881,4.13742 3.39153,6.34223 5.071966,8.57798 1.700659,2.26266 2.602687,3.12462 4.000291,3.8225 0.625572,0.31238 2.138683,1.08836 3.362464,1.72441 2.402484,1.24869 3.701552,1.7434 5.916808,2.25329 0.78095,0.17978 2.186655,0.53039 3.123792,0.77916 2.564349,0.68075 6.041436,1.49293 7.943788,1.85556 1.673144,0.31893 3.393929,0.97242 6.917877,2.62713 0.989201,0.4645 1.862442,0.80693 1.940537,0.76098 0.07811,-0.0458 0.141991,-0.2635 0.141991,-0.48346 z m -29.967086,36.55675 c 1.678514,-0.61948 2.483851,-1.58529 4.053169,-4.86093 0.732742,-1.52945 1.551665,-3.20679 1.81983,-3.72741 0.878581,-1.70575 4.251965,-6.58856 5.820387,-8.42478 2.02888,-2.37526 2.088366,-2.48186 2.827054,-5.06505 0.421967,-1.47563 0.789472,-2.38301 1.092372,-2.69709 0.251054,-0.26032 0.722311,-0.85668 1.047234,-1.32525 0.749027,-1.08015 2.758816,-3.03454 3.746349,-3.64309 0.416504,-0.25666 1.438835,-0.70139 2.271847,-0.98828 2.562257,-0.88244 3.830236,-1.54669 4.919989,-2.57731 0.573986,-0.54288 1.04361,-1.06287 1.04361,-1.1556 0,-0.0928 -0.362076,-0.32406 -0.804612,-0.51408 -0.677614,-0.29095 -2.20332,-0.97879 -3.833742,-1.72837 -1.285067,-0.59081 -2.612588,-0.97054 -4.939011,-1.41281 -1.448597,-0.27542 -3.400561,-0.71774 -4.337698,-0.98298 -0.937137,-0.26524 -2.896605,-0.76543 -4.354375,-1.11153 -3.443436,-0.81755 -4.36265,-1.1497 -7.010792,-2.53324 -1.209403,-0.63185 -2.330323,-1.14883 -2.490935,-1.14883 -0.490826,0 -2.769359,-1.62481 -3.769222,-2.6878 -0.519377,-0.55217 -1.351096,-1.57658 -1.848267,-2.2765 -0.71386,-1.00493 -1.050554,-1.31326 -1.601113,-1.46619 -1.657323,-0.46029 -5.880289,0.002 -9.377424,1.02656 -1.997184,0.58514 -5.279701,2.02279 -7.178464,3.144 -1.980908,1.16974 -4.066917,3.33206 -4.919774,5.09974 -1.879844,3.89629 -2.569287,10.05997 -1.535308,13.72574 0.406497,1.44114 0.400062,3.96312 -0.0161,6.31812 -0.426132,2.41127 -0.430839,5.18089 -0.01051,6.22196 0.406184,1.00619 1.362674,1.859 2.411371,2.15 3.04429,0.84474 4.02908,1.21244 5.012003,1.87132 1.498005,1.00418 2.259199,1.84112 3.800619,4.17868 2.054431,3.11559 3.164383,3.89003 6.243017,4.35591 0.805052,0.12187 2.098673,0.52626 3.12379,0.97663 3.193508,1.40295 4.046685,1.63957 5.954985,1.65174 1.333501,0.009 2.002068,-0.0841 2.839809,-0.39328 z m 50.7052434,12.42002 c 2.2781656,-0.58594 3.9803676,-2.24512 5.3905226,-5.25431 1.676354,-3.57725 1.743893,-3.94541 1.778668,-9.6958 0.02384,-3.93976 0.102032,-5.43716 0.341133,-6.53156 1.321521,-6.04873 1.493938,-9.84497 0.532716,-11.72911 -0.583947,-1.14462 -1.41733,-2.00043 -3.43888,-3.53138 -1.04242,-0.78942 -2.211675,-1.87698 -2.699286,-2.51066 -0.953019,-1.23853 -4.4102986,-4.08085 -6.4425686,-5.29662 -1.305735,-0.78113 -3.092115,-1.5439 -3.615754,-1.5439 -0.15118,0 -0.83461103,-0.22407 -1.51871603,-0.49792 l -1.24383,-0.49795 -0.50937897,0.47632 c -0.723724,0.67677 -1.474641,1.01625 -2.843493,1.28557 -1.129437,0.22226 -1.558903,0.21309 -5.29856,-0.11181 l -1.1957814,-0.10398 -1.083398,1.00273 c -1.269453,1.17494 -2.706428,1.97422 -4.987749,2.77429 -0.905939,0.31772 -1.970867,0.74358 -2.366509,0.94635 -0.826471,0.42358 -3.266397,2.87569 -3.700941,3.71945 -0.16102,0.31263 -0.458354,0.71827 -0.660766,0.90145 -0.202409,0.18314 -0.520689,0.82194 -0.707286,1.41946 -1.116,3.57364 -1.479484,4.24686 -3.601935,6.67136 -1.765406,2.01662 -4.870138,6.72447 -6.094514,9.24134 -0.930594,1.91298 -1.012367,2.17594 -0.765335,2.46118 0.15212,0.17553 0.433107,0.7453 0.624409,1.26595 0.191296,0.52062 0.586336,1.3394 0.877854,1.81949 0.291517,0.48006 0.530032,0.9364 0.530032,1.01405 0,0.33508 2.549739,3.36469 3.867334,4.59517 1.651973,1.54278 3.052841,2.32218 4.168631,2.31934 0.422092,-0.002 1.576787,-0.1724 2.565986,-0.38062 3.751347,-0.78985 5.900564,-0.98063 7.292649,-0.64734 0.782437,0.18738 2.421496,1.013 3.842771,1.93583 2.5611754,1.66297 3.6428784,1.96079 5.5748424,1.53493 0.649295,-0.14311 1.776896,-0.24977 2.505781,-0.237 1.177286,0.0201 1.578884,0.13886 3.59708897,1.05963 1.24951603,0.57004 2.65522103,1.20468 3.12379003,1.41031 2.267703,0.99518 4.200515,1.21971 6.160473,0.71563 z m 26.9435456,-10.3157 c 0.835128,-0.37897 3.245535,-2.18746 3.245535,-2.4351 0,-0.074 -0.346741,-0.47135 -0.770534,-0.88298 -1.134526,-1.10187 -2.341518,-3.1576 -3.051614,-5.19739 -0.622092,-1.78702 -0.626081,-1.82101 -0.621965,-5.30098 0.0034,-2.86291 0.06214,-3.63228 0.321766,-4.21359 0.349147,-0.78173 0.930241,-1.10222 1.723547,-0.95057 0.979524,0.18716 1.069217,0.56051 0.942797,3.92343 -0.13005,3.45962 0.106973,5.03531 1.056467,7.0232 0.560683,1.17385 2.003491,3.11559 2.31503,3.11559 0.233662,0 2.697427,-3.80568 3.799494,-5.86893 1.059781,-1.98408 1.574953,-3.38295 2.719213,-7.3835 0.491414,-1.71809 1.046071,-3.65289 1.232571,-4.29956 l 0.339089,-1.17575 -1.26385,-0.92871 c -1.434986,-1.05446 -2.710731,-1.85513 -6.091521,-3.82318 -5.478977,-3.18942 -7.83444,-5.35555 -9.212747,-8.47214 -1.082445,-2.4476 -1.230487,-5.30161 -0.41266,-7.95549 0.506524,-1.64369 0.92201,-2.45413 2.193744,-4.27903 l 1.041478,-1.49448 -0.846312,0.0953 c -0.465472,0.0525 -1.349225,0.36491 -1.963893,0.69428 -3.171932,1.69977 -4.973552,2.46701 -9.707421,4.134 -0.88518,0.31171 -2.394145,1.59012 -3.248247,2.75191 -0.868376,1.18125 -2.681088,2.30145 -5.29543,3.27244 -1.41071,0.52396 -1.451162,0.52749 -6.2475786,0.54388 -4.248249,0.0156 -4.952649,0.0601 -5.868939,0.38045 -1.062826,0.3715 -1.963721,0.85923 -1.831417,0.99154 0.04047,0.0405 0.660799,0.23662 1.378481,0.43585 2.998319,0.83236 5.756272,2.74719 9.2032096,6.38975 0.699661,0.73936 2.105367,1.96658 3.123789,2.72711 3.429025,2.56075 4.531349,3.98258 5.074285,6.54494 0.391527,1.84779 0.33734,3.45839 -0.206546,6.13906 -0.08801,0.43373 -0.02706,0.50975 0.491747,0.61353 0.355171,0.0711 1.000141,0.51696 1.611422,1.11412 1.09363,1.06839 1.860365,2.39031 4.436846,7.64939 1.652507,3.37309 2.61793,4.58059 4.373558,5.47024 2.081533,1.05479 4.5407,1.32098 6.016606,0.65127 z" />
      <path
         id="path20656"
         style="fill:#ff0066;stroke-width:0.18932059"
         d="m 123.18203,103.10362 c 0.54645,-0.28105 1.57057,-1.05529 2.27579,-1.72056 1.45608,-1.3736 3.59126,-4.219937 3.33632,-4.447546 -0.0928,-0.08296 -1.36149,-0.3391 -2.81928,-0.569393 -4.00444,-0.632651 -7.81542,-1.687025 -10.94057,-3.026923 -0.84788,-0.36354 -0.91532,-0.367498 -1.04127,-0.06105 -0.20841,0.507208 -0.0944,4.326482 0.16166,5.413771 0.50717,2.153961 1.6998,3.673531 3.58483,4.567531 0.93244,0.44223 1.21935,0.48659 2.74515,0.42445 1.3926,-0.0568 1.88541,-0.16278 2.69746,-0.58035 z m 54.32926,-1.54789 c 2.87384,-0.85344 5.46594,-3.897161 7.84699,-9.214177 1.0461,-2.336 2.9962,-7.978342 2.99819,-8.674967 0.002,-0.865426 -0.65197,-2.312253 -1.39003,-3.072763 -2.0136,-2.074894 -5.79804,-2.430943 -8.5703,-0.806304 -1.28471,0.752907 -3.49169,2.930459 -4.61091,4.549485 -1.25539,1.81598 -2.55433,4.559928 -3.05648,6.456719 -0.56049,2.117044 -0.57615,5.427568 -0.0326,6.914375 1.23107,3.368212 3.71239,4.769072 6.81525,3.847632 z M 65.231962,100.24322 c 1.27458,-0.583525 3.22779,-2.428103 4.31872,-4.078524 0.95896,-1.45074 2.32737,-4.140799 3.15583,-6.203752 0.87433,-2.177217 2.43578,-6.883831 2.43578,-7.342136 0,-1.653663 -1.65843,-3.734237 -3.54243,-4.444122 -0.90905,-0.342543 -1.38979,-0.400525 -2.81908,-0.340128 -2.45356,0.103753 -3.75361,0.763305 -6.048722,3.06914 -0.942488,0.946886 -2.033661,2.212077 -2.424828,2.811522 -3.562413,5.459253 -4.293303,11.537226 -1.80418,15.003269 1.507503,2.099151 4.160906,2.700391 6.72891,1.524731 z m 65.187648,-6.779294 c 1.3064,-2.97726 1.42833,-8.274442 0.272,-11.81678 -1.05391,-3.228549 -2.53208,-5.374215 -4.96573,-7.208016 -2.08615,-1.571957 -3.61387,-2.148997 -5.9986,-2.265787 -3.21936,-0.157643 -5.51886,0.547904 -7.78499,2.388749 -2.44652,1.987374 -3.68372,4.27579 -3.81656,7.059496 -0.10421,2.183008 0.23349,3.173117 1.70685,5.004615 1.2531,1.557691 1.94899,2.127375 2.24142,1.834941 0.10129,-0.101294 0.60076,-1.285337 1.11007,-2.631295 0.50931,-1.34598 1.14894,-2.929341 1.42143,-3.518612 l 0.49542,-1.071368 -0.4793,-0.706241 c -0.26361,-0.38845 -0.47928,-0.85997 -0.47928,-1.047777 0,-0.428722 0.69779,-0.930921 1.29352,-0.930921 1.10601,0 4.19677,2.183164 4.19677,2.964358 0,0.2046 -0.17978,0.564876 -0.39929,0.800625 -0.31431,0.337356 -0.56363,0.415484 -1.17121,0.367006 l -0.77189,-0.06149 -0.72948,1.68584 c -1.00614,2.325312 -2.07136,5.436937 -1.96032,5.726351 0.20751,0.540526 4.12164,2.09323 7.36314,2.920867 1.88912,0.48232 6.4132,1.276416 7.38238,1.295758 0.67096,0.01342 0.7449,-0.04092 1.07365,-0.790228 z m 9.30894,-2.654461 c 6.79126,-4.643512 12.64122,-11.840482 14.17822,-17.442866 0.57552,-2.097791 0.48123,-4.687115 -0.22575,-6.198922 -1.01162,-2.163286 -2.92462,-3.469374 -5.08632,-3.472572 -1.60559,-0.0022 -3.22987,0.772607 -4.97962,2.375936 -3.48967,3.197647 -5.56153,8.292152 -6.19735,15.238839 -0.3463,3.783363 0.1241,10.512256 0.73374,10.493518 0.0711,-0.0022 0.78077,-0.44945 1.57708,-0.993933 z m -45.831808,-3.39981 c 1.5051,-1.790153 3.34331,-4.729757 5.10602,-8.165434 1.890728,-3.685177 2.984548,-6.273003 4.222478,-9.989866 1.33174,-3.99854 1.86849,-6.774464 1.89887,-9.820796 0.0302,-3.035868 -0.20236,-4.029175 -1.20953,-5.163913 -0.64656,-0.728489 -0.78674,-0.798098 -1.57417,-0.781752 -2.500778,0.05188 -4.914298,4.134001 -6.739288,11.398477 -1.25216,4.984357 -2.55831,12.824487 -3.41258,20.4841 -0.21489,1.926352 -0.42991,3.758029 -0.47789,4.070407 l -0.0872,0.567962 0.6807,-0.75729 c 0.37441,-0.416512 1.09109,-1.245356 1.59262,-1.841895 z m 46.043388,24.690055 c -0.12858,-0.0816 -0.28638,-0.4113 -0.3506,-0.73251 -0.0984,-0.49167 -0.007,-0.70595 0.58026,-1.35555 0.78916,-0.8735 0.80186,-0.682 -0.22788,-3.43727 -0.36966,-0.98919 -1.28609,-3.5765 -2.03645,-5.74958 l -1.3643,-3.951046 -2.25402,0.02661 c -1.89538,0.02236 -2.2932,0.07849 -2.50033,0.353947 -0.13551,0.180004 -0.76722,1.136796 -1.40387,2.125989 -1.64284,2.55259 -4.33675,5.21299 -6.20773,6.13057 -3.32294,1.62962 -7.50689,0.93087 -10.12947,-1.6917 -1.24795,-1.24793 -2.11919,-2.98773 -2.4499,-4.892144 -0.13976,-0.805164 -0.28904,-1.498748 -0.33157,-1.541278 -0.0425,-0.04249 -0.54117,0.572635 -1.10813,1.367043 -2.1697,3.040209 -5.34268,5.732769 -7.86996,6.678359 -1.29153,0.48321 -4.038318,0.78611 -5.399118,0.59538 -2.48537,-0.34836 -4.99596,-2.597 -6.41144,-5.74248 l -0.63035,-1.400784 -1.0861,1.621084 c -4.50063,6.71771 -8.91906,8.84486 -11.9911,5.77284 -1.05044,-1.05046 -1.91849,-2.77783 -2.28665,-4.55043 -0.38794,-1.867807 -0.70361,-5.658326 -0.56589,-6.795479 l 0.11471,-0.946618 -0.60848,0.946618 c -0.33465,0.520624 -0.96703,1.502683 -1.40528,2.182337 -1.60596,2.490669 -3.6591,4.457132 -5.76552,5.522172 -1.18646,0.59992 -1.32662,0.62559 -3.414435,0.62559 -1.98455,0 -2.276523,-0.0465 -3.299883,-0.52577 -2.149867,-1.00681 -3.554998,-2.5713 -4.458853,-4.96452 -0.527348,-1.396314 -0.738509,-5.037709 -0.403642,-6.960662 1.292189,-7.420287 7.245135,-14.6368 12.785133,-15.498872 3.03744,-0.472638 5.64829,0.205719 7.65653,1.98932 0.54218,0.481538 1.05386,0.875533 1.13706,0.875533 0.0832,0 0.38653,-1.043641 0.67402,-2.319185 0.28752,-1.275543 0.5664,-2.510033 0.61975,-2.743277 0.0818,-0.358151 -0.0387,-0.482253 -0.775,-0.797897 -0.83604,-0.358353 -0.97848,-0.574267 -0.88007,-1.333838 0.0201,-0.156301 0.1932,-0.444419 0.38425,-0.6405 0.29724,-0.305045 0.61373,-0.352852 2.19141,-0.330916 2.37983,0.03309 3.21599,0.257171 3.57903,0.959252 0.25682,0.496609 0.24877,0.581848 -0.0964,1.020587 -0.20706,0.263297 -0.6579,0.571584 -1.00174,0.685065 l -0.62516,0.206389 -1.08572,4.966356 c -2.15329,9.849619 -2.65815,13.289544 -2.64619,18.029498 0.0134,4.950857 0.57637,7.291577 2.07313,8.605787 1.32956,1.16734 2.7062,0.62675 5.22657,-2.0524 0.7591,-0.80695 1.93397,-2.26091 2.61079,-3.231012 0.67683,-0.970096 1.55715,-2.184864 1.95629,-2.69945 l 0.72569,-0.935617 0.0561,-4.103367 c 0.12097,-8.832834 2.91232,-25.638352 5.35114,-32.217473 2.05716,-5.549613 4.63365,-8.330099 7.718908,-8.330099 2.21536,0 3.95887,1.402844 4.84737,3.900265 0.51341,1.44316 0.69229,5.067874 0.37079,7.513866 -1.27834,9.725696 -7.40667,22.495355 -14.312948,29.824096 l -1.66314,1.764885 0.22942,1.498681 c 0.56411,3.685066 2.30116,6.674785 4.46304,7.681455 1.29808,0.60448 2.96921,0.59719 4.719958,-0.0201 3.1438,-1.10931 5.97429,-3.804937 8.99862,-8.569913 1.69965,-2.677872 1.70882,-2.887526 0.1762,-4.024724 -6.03665,-4.479139 -6.29389,-11.767788 -0.60812,-17.231021 1.67307,-1.607578 3.68063,-2.743725 5.83437,-3.301848 1.47648,-0.382614 5.45255,-0.38675 7.06171,-0.0067 3.86876,0.91216 7.66798,4.165955 9.77201,8.36914 2.16579,4.326549 2.44659,9.014716 0.93029,15.53154 -0.0957,0.411325 -0.0525,0.425972 1.25676,0.425972 h 1.35591 l -0.10554,-0.6153 c -0.78714,-4.585777 -1.07911,-10.512189 -0.68489,-13.903122 0.48682,-4.187533 1.59157,-7.746305 3.47043,-11.179634 1.7749,-3.243307 3.7824,-5.216975 6.76896,-6.65479 1.36684,-0.658053 1.49772,-0.683566 3.50242,-0.682672 1.99185,9.39e-4 2.13541,0.0284 3.29626,0.633412 1.6402,0.854715 3.11147,2.285531 3.80776,3.703088 1.95044,3.970947 1.27188,8.933188 -1.96121,14.341839 -1.44139,2.411311 -3.03509,4.342045 -6.02263,7.29614 -3.00669,2.973056 -4.91151,4.580477 -7.39225,6.238165 -1.00934,0.674488 -1.80314,1.327219 -1.76399,1.450561 1.3126,4.13532 3.0172,9.027667 3.14544,9.027667 0.0932,0 0.16971,-0.13462 0.16971,-0.29906 0,-0.65508 2.15672,-6.713685 2.95235,-8.293647 2.49197,-4.948579 5.52377,-7.785883 8.31219,-7.778974 2.56855,0.0067 3.56351,1.589712 4.81949,7.669384 0.8684,4.203655 1.69944,6.260077 2.98643,7.390097 0.74658,0.65548 1.54309,0.72046 2.51502,0.20527 0.88316,-0.46823 2.57132,-2.50524 3.48129,-4.2007 l 0.73909,-1.377061 -0.0385,-2.289892 c -0.0561,-3.349968 0.53339,-5.806671 2.18153,-9.090854 2.2538,-4.491101 5.7743,-7.990171 9.27811,-9.221664 0.94628,-0.332593 1.4608,-0.37926 3.56914,-0.323783 2.24256,0.05903 2.5601,0.112251 3.54111,0.594035 0.59272,0.291046 1.49975,0.908716 2.01568,1.372566 0.51591,0.463851 1.01737,0.843356 1.11433,0.843356 0.14154,0 1.39586,-4.848783 1.38126,-5.339444 -0.002,-0.07312 -0.38733,-0.302719 -0.8559,-0.50998 -1.01804,-0.450322 -1.20752,-1.193122 -0.50473,-1.978609 0.27866,-0.311462 0.55238,-0.341269 2.49141,-0.271347 2.30219,0.08296 3.05725,0.30169 3.36117,0.973406 0.27153,0.600094 -0.0662,1.165529 -0.92812,1.554247 -0.41046,0.185147 -0.78178,0.393996 -0.82522,0.464231 -0.11762,0.190289 -1.88772,8.241393 -2.43403,11.071095 -1.5801,8.184329 -1.80485,14.322251 -0.6602,18.028228 0.51689,1.67347 1.6726,2.8917 2.74332,2.8917 0.50086,0 1.03423,-0.17888 1.59434,-0.53451 1.23044,-0.78139 3.68934,-3.49907 5.37855,-5.944633 1.87877,-2.719978 2.3057,-3.176203 2.97234,-3.176203 0.66206,0 1.19749,0.727461 1.00346,1.363287 -0.22738,0.745059 -1.99701,3.563959 -3.43948,5.478819 -1.65876,2.20201 -3.41693,3.85563 -5.02252,4.72376 -1.02493,0.55417 -1.36718,0.64185 -2.51185,0.64346 -1.10529,0.002 -1.47153,-0.0841 -2.20662,-0.51629 -1.56936,-0.92256 -2.76107,-2.87661 -3.28309,-5.38332 -0.39513,-1.89732 -0.70127,-5.508376 -0.55707,-6.570576 0.0711,-0.523509 0.0528,-0.878574 -0.0425,-0.819765 -0.0924,0.05702 -0.67688,0.92808 -1.29902,1.935653 -2.15144,3.484198 -4.05957,5.361138 -6.66466,6.555738 -1.01387,0.46494 -1.41178,0.54039 -2.8398,0.53844 -1.64238,-0.002 -3.13506,-0.28159 -4.03595,-0.75541 -0.77708,-0.40866 -2.17856,-1.65107 -2.66019,-2.35825 -0.25017,-0.36734 -0.49746,-0.66782 -0.54954,-0.66776 -0.0521,1.1e-4 -0.28829,0.33928 -0.52496,0.75371 -0.23666,0.41444 -0.96082,1.32152 -1.60923,2.01573 -1.5047,1.611 -2.93853,2.34099 -4.58667,2.33517 -1.47017,-0.004 -2.41697,-0.44658 -3.53496,-1.64789 -1.55423,-1.67007 -2.2581,-3.45971 -3.2849,-8.352011 -0.88278,-4.206182 -1.47033,-5.520074 -2.46846,-5.520074 -0.67684,0 -2.17333,1.136907 -3.2396,2.461175 -1.38133,1.715535 -2.57848,3.789646 -3.45491,5.98578 -1.28777,3.22683 -2.87305,9.21708 -2.53002,9.56012 0.083,0.083 0.51877,0.0575 0.9684,-0.0566 0.71702,-0.18202 0.87971,-0.16122 1.32415,0.16927 1.01697,0.75639 0.6611,1.68034 -0.91321,2.37086 -1.43703,0.6303 -4.3547,1.65994 -4.69507,1.65688 -0.1771,-0.002 -0.42711,-0.0698 -0.55571,-0.15138 z" />
      <path
         id="path20407"
         style="fill:#ffcc00;stroke-width:0.18932059"
         d="m 191.59938,116.67581 c 0.0657,-0.29742 0.12969,-0.77795 0.14199,-1.06788 0.0253,-0.59668 0.46716,-0.58254 -3.71669,-0.11874 -1.78747,0.19812 -1.94075,0.24707 -1.94314,0.61982 -0.002,0.22249 -0.053,0.59247 -0.11449,0.82202 l -0.1118,0.41734 2.8123,-0.066 2.81231,-0.066 z M 57.819452,164.12997 c 0.833012,-0.40993 1.762871,-0.94762 2.066355,-1.19484 l 0.551786,-0.44949 -1.25332,-0.31482 c -0.689322,-0.17307 -1.36921,-0.31484 -1.510856,-0.31484 -0.141655,0 -0.45854,0.36209 -0.704208,0.80463 -0.245666,0.44254 -0.751219,1.18093 -1.123453,1.64087 l -0.676791,0.83629 0.567961,-0.13126 c 0.312379,-0.0722 1.249516,-0.46662 2.082526,-0.87656 z m 5.229313,-4.72434 c 0.405328,-0.67089 0.672463,-1.27751 0.593632,-1.34806 -0.141342,-0.12656 -3.610354,-0.55596 -4.491063,-0.55596 -0.397569,0 -0.479966,0.12947 -0.672375,1.05628 -0.120614,0.58095 -0.175264,1.1003 -0.121464,1.1541 0.149974,0.15004 3.402934,0.98231 3.696011,0.9457 0.14208,-0.0179 0.589943,-0.58117 0.995268,-1.25206 z m 1.396844,-4.41251 c 0.06701,-0.54667 0.02858,-1.57104 -0.0854,-2.27638 -0.70008,-4.33237 -3.666828,-8.09281 -10.625647,-13.46832 -7.277153,-5.62141 -8.935823,-7.13944 -10.699427,-9.79231 -0.47504,-0.71454 -0.902431,-1.29918 -0.94976,-1.29918 -0.182262,0 -5.818106,1.70507 -5.897162,1.78414 -0.214394,0.21444 1.119929,2.21644 2.22588,3.33968 1.404424,1.42641 2.748506,2.35744 7.288843,5.04891 3.94085,2.33607 5.58155,3.48329 7.299505,5.1039 3.099124,2.92357 5.131188,6.81444 5.62529,10.77099 l 0.139844,1.11987 2.555065,0.30431 c 1.405285,0.16726 2.655427,0.31647 2.778091,0.33132 0.133225,0.0156 0.272087,-0.37318 0.344872,-0.96693 z m -25.87674,-27.99387 c 1.424703,-0.42845 2.607674,-0.79363 2.62882,-0.81149 0.02124,-0.0179 -0.07806,-0.45535 -0.220454,-0.9722 -0.142393,-0.51685 -0.311133,-1.17684 -0.374962,-1.46671 l -0.116052,-0.52697 -2.017883,0.0537 -2.017888,0.0537 -0.336032,0.97332 c -0.446972,1.29459 -0.675496,3.47572 -0.364164,3.47572 0.125533,0 1.393917,-0.35055 2.818622,-0.77902 z m 1.92775,-6.27924 c 0,-0.44324 0.396989,-2.03572 0.664712,-2.66643 0.13318,-0.31374 0.10429,-0.32888 -0.257667,-0.13528 -0.501627,0.26846 -3.057535,2.82984 -3.057535,3.06407 0,0.0932 0.59636,0.16971 1.325245,0.16971 1.253632,0 1.325245,-0.0233 1.325245,-0.43205 z M 190.59742,165.9388 c 1.38898,-0.14691 2.55287,-0.29501 2.58641,-0.32908 0.0606,-0.0615 -0.23706,-1.95578 -0.3696,-2.35163 -0.0487,-0.14557 -0.8192,-0.10532 -2.59511,0.13617 -1.38916,0.18895 -2.64324,0.34597 -2.78679,0.34912 -0.20349,0.004 -0.23329,0.21489 -0.13529,0.95469 0.15586,1.17492 0.28085,1.51288 0.55846,1.51004 0.11896,-0.002 1.35283,-0.12254 2.7418,-0.26936 z m -0.84799,-4.59913 2.62405,-0.32919 -0.12186,-1.03658 c -0.24065,-2.04754 -0.16592,-1.96633 -1.67509,-1.81761 -1.23424,0.12164 -4.12358,0.61727 -4.23232,0.72601 -0.14199,0.14199 0.40661,2.78453 0.57811,2.78547 0.11158,0 1.38384,-0.14691 2.82707,-0.3281 z m -0.47241,-5.11264 2.34094,-0.32557 -0.11695,-1.14046 c -0.0644,-0.62724 -0.2402,-2.33318 -0.39075,-3.79095 -0.59137,-5.7259 -0.72254,-9.52302 -0.59802,-17.30993 0.0675,-4.2242 0.17218,-8.08384 0.23276,-8.57698 l 0.11001,-0.8966 -2.71667,0.11628 c -1.49416,0.064 -2.77415,0.16927 -2.84441,0.23396 -0.26278,0.24232 -0.5342,6.56897 -0.53297,12.42363 0.002,6.03003 0.27502,11.34262 0.85494,16.5915 0.36343,3.28964 0.3571,3.26757 0.89669,3.11811 0.23299,-0.0646 1.47705,-0.26383 2.76458,-0.44292 z m 1.67316,-34.19829 c 0.036,-0.036 0.11739,-0.61991 0.18067,-1.29753 l 0.11494,-1.23198 -1.11357,-0.093 c -0.61248,-0.0512 -1.85736,-0.051 -2.76646,0 l -1.65286,0.0935 -0.0885,0.58922 c -0.0487,0.32408 -0.13863,0.96469 -0.1999,1.42357 l -0.11158,0.83435 2.78587,-0.12656 c 1.53227,-0.0695 2.81537,-0.15608 2.85142,-0.19208 z M 82.227142,164.29538 c -0.35842,-0.53264 -0.70456,-1.17913 -0.76919,-1.43666 -0.11538,-0.45971 -0.14199,-0.46581 -1.46538,-0.33588 -1.84657,0.18135 -1.9935,0.2904 -1.24261,0.92223 0.9974,0.83926 2.70992,1.60981 3.99968,1.79967 0.0711,0.0112 -0.16413,-0.41675 -0.5225,-0.94936 z m -3.21668,-3.76613 c 0.82592,-0.10643 1.52404,-0.216 1.55134,-0.24328 0.0525,-0.0525 -0.51601,-2.45328 -0.60796,-2.5669 -0.0937,-0.11583 -4.81748,0.39626 -4.90091,0.53123 -0.0438,0.0709 0.25959,0.6955 0.67429,1.38792 0.67952,1.13461 0.80474,1.25037 1.26778,1.17179 0.2826,-0.0481 1.18955,-0.17419 2.01546,-0.28076 z m -1.59751,-4.74297 c 1.09265,-0.11382 2.02022,-0.2406 2.0613,-0.28165 0.0409,-0.0412 -0.10644,-1.67449 -0.32752,-3.62984 -0.64725,-5.72226 -0.8493,-10.52507 -0.71905,-17.09165 0.0651,-3.27998 0.17419,-6.5932 0.24232,-7.36273 l 0.1241,-1.39915 -1.68387,0.11896 c -0.92616,0.0655 -2.80929,0.17441 -4.18474,0.24217 l -2.50084,0.1232 -0.13707,0.87301 c -0.28459,1.81359 -0.15675,11.72101 0.18827,14.59872 0.58896,4.9107 1.53643,8.93668 2.99949,12.74526 l 0.56879,1.48068 0.69103,-0.10487 c 0.38005,-0.0577 1.58498,-0.19811 2.67768,-0.312 z m -2.17688,-31.62503 c 1.97887,-0.11515 3.65116,-0.26417 3.71619,-0.33129 0.0651,-0.0671 0.17396,-0.69714 0.24192,-1.40001 l 0.12365,-1.27791 h -4.23802 -4.238 l -0.12164,1.16369 c -0.2055,1.9671 -0.18873,2.05477 0.39813,2.05477 0.28586,0 2.13884,-0.0941 4.11772,-0.20929 z m 4.62877,-6.25133 c 0.14758,-0.75056 0.16324,-1.2245 0.0443,-1.34359 -0.11919,-0.11896 -1.65317,-0.0991 -4.34914,0.0568 l -4.16521,0.24078 -0.11203,0.67684 c -0.0615,0.37226 -0.11292,0.86851 -0.11404,1.1028 l -0.002,0.42597 h 4.23507 4.2351 z m 34.495288,46.29689 c 0.90074,-0.0704 1.73195,-0.18627 1.84711,-0.25742 0.21399,-0.13215 0.0984,-1.65633 -0.15697,-2.06944 -0.0937,-0.15183 -0.83578,-0.14803 -2.7213,0.0134 -1.42576,0.12231 -2.67836,0.27568 -2.78355,0.34069 -0.12768,0.0789 -0.11784,0.48395 0.0295,1.21756 l 0.2207,1.09938 0.96327,-0.10822 c 0.52982,-0.0595 1.70027,-0.16592 2.601,-0.23629 z m -0.89635,-4.43198 c 1.13664,-0.10465 2.09934,-0.22316 2.13932,-0.26312 0.04,-0.04 0.0134,-0.51826 -0.0586,-1.06278 l -0.13125,-0.99009 -1.15603,0.11896 c -0.6358,0.0655 -1.90146,0.21913 -2.81257,0.34156 -1.81701,0.24413 -1.81753,0.24467 -1.53855,1.63955 0.11068,0.55361 0.16055,0.58444 0.80462,0.4982 0.37761,-0.0505 1.61655,-0.17755 2.75319,-0.28233 z m -0.39889,-4.17991 c 1.11323,-0.12522 2.02141,-0.27998 2.01819,-0.3438 -0.002,-0.0637 -0.089,-0.75498 -0.19052,-1.53593 -0.80731,-6.20715 -1.21025,-14.29927 -1.04999,-21.08719 0.0686,-2.90343 0.17553,-5.65093 0.23792,-6.10559 l 0.11337,-0.82668 h -2.8473 -2.84732 l -0.1563,2.03521 c -0.23459,3.05577 -0.17509,15.25757 0.0908,18.60074 0.2514,3.16223 0.73375,8.00127 0.90776,9.1066 l 0.10733,0.68182 0.79606,-0.1487 c 0.43782,-0.0818 1.70688,-0.25122 2.82011,-0.37646 z m 1.33388,-33.43294 c 0.0675,-0.79816 0.0827,-1.49125 0.0338,-1.54016 -0.049,-0.049 -1.28246,-0.13193 -2.74122,-0.18425 -3.0227,-0.10867 -2.75931,-0.27016 -2.94153,1.80314 l -0.12075,1.37257 h 2.82349 2.82348 z m 0.5012,-4.7991 0.12119,-0.94384 h -2.78221 -2.78218 l -0.11829,0.59162 c -0.27083,1.35414 -0.40231,1.28565 2.57949,1.3437 1.48381,0.0289 2.73455,0.03 2.77943,0.002 0.045,-0.0275 0.13618,-0.47481 0.20281,-0.99393 z m 37.70291,46.84393 c 0.90073,-0.0704 1.73192,-0.18627 1.8471,-0.25742 0.21399,-0.13215 0.0984,-1.65633 -0.15697,-2.06944 -0.0937,-0.15183 -0.83578,-0.14803 -2.7213,0.0134 -1.42574,0.12231 -2.67834,0.27568 -2.78352,0.34069 -0.12768,0.0789 -0.11784,0.48395 0.0295,1.21756 l 0.2207,1.09938 0.96328,-0.10822 c 0.52979,-0.0595 1.70024,-0.16592 2.60097,-0.23629 z m -0.89635,-4.43198 c 1.13661,-0.10465 2.09931,-0.22316 2.13931,-0.26312 0.04,-0.04 0.0134,-0.51826 -0.0586,-1.06278 l -0.13126,-0.99009 -1.15603,0.11896 c -0.6358,0.0655 -1.90146,0.21913 -2.81257,0.34156 -1.81699,0.24413 -1.8175,0.24467 -1.53853,1.63955 0.11069,0.55361 0.16055,0.58444 0.80463,0.4982 0.3776,-0.0505 1.61654,-0.17755 2.75316,-0.28233 z m -0.39887,-4.17991 c 1.1132,-0.12522 2.02138,-0.27998 2.01816,-0.3438 -0.002,-0.0637 -0.089,-0.75498 -0.19051,-1.53593 -0.80731,-6.20715 -1.21028,-14.29927 -1.05002,-21.08719 0.0686,-2.90343 0.17554,-5.65093 0.23794,-6.10559 l 0.11337,-0.82668 h -2.8473 -2.84732 l -0.1563,2.03521 c -0.23459,3.05577 -0.17508,15.25757 0.0908,18.60074 0.25141,3.16223 0.73375,8.00127 0.90776,9.1066 l 0.10733,0.68182 0.79606,-0.1487 c 0.43783,-0.0818 1.70689,-0.25122 2.82011,-0.37646 z m 1.33386,-33.43294 c 0.0675,-0.79816 0.0825,-1.49125 0.0338,-1.54016 -0.049,-0.049 -1.28245,-0.13193 -2.74117,-0.18425 -3.0227,-0.10867 -2.75931,-0.27016 -2.94153,1.80314 l -0.12053,1.37257 h 2.82349 2.82346 z m 0.50119,-4.7991 0.12097,-0.94384 h -2.78218 -2.78221 l -0.11829,0.59162 c -0.27083,1.35414 -0.40234,1.28565 2.57949,1.3437 1.48378,0.0289 2.73453,0.03 2.77941,0.002 0.0449,-0.0275 0.13617,-0.47481 0.20281,-0.99393 z m 67.60402,47.01729 1.09916,-0.11494 -0.10979,-0.58933 c -0.0604,-0.32415 -0.17732,-0.66389 -0.25981,-0.75497 -0.0836,-0.0924 -1.37787,-0.1042 -2.92614,-0.0268 -2.715,0.13573 -2.77374,0.1478 -2.66732,0.54424 0.0597,0.22293 0.11001,0.6097 0.11135,0.85936 l 0.002,0.45392 1.82537,-0.12835 c 1.00397,-0.0707 2.32001,-0.18 2.92458,-0.24319 z m -0.46077,-3.66014 c 0.74524,0 0.8225,-0.0434 0.8225,-0.46096 0,-0.25355 -0.0879,-0.69189 -0.19521,-0.97415 l -0.19521,-0.51315 -1.84011,0.12567 c -3.2489,0.22181 -3.63896,0.30325 -3.63603,0.7584 0.002,0.22093 0.057,0.6054 0.12388,0.85454 0.12075,0.45151 0.12768,0.45256 2.1094,0.3313 1.0935,-0.0669 2.35829,-0.12165 2.81067,-0.12165 z m -1.57428,-3.91005 1.86291,-0.12478 -0.11225,-0.77502 c -0.19252,-1.32883 -0.66129,-5.59422 -0.876,-7.96924 -0.27016,-2.9884 -0.43796,-17.32069 -0.23886,-20.39929 l 0.15608,-2.41383 h -2.78104 -2.78105 l -0.15563,1.0886 c -0.25873,1.80983 -0.18716,18.7147 0.0928,21.91385 0.26057,2.97777 0.70559,7.05918 0.9057,8.30671 l 0.11784,0.73385 0.97322,-0.11806 c 0.53532,-0.0649 1.8116,-0.17419 2.83621,-0.24282 z m 0.94438,-33.95631 c 0.049,-0.0508 0.11896,-0.60356 0.15541,-1.22832 l 0.0664,-1.13593 -2.74513,0.0675 c -1.50984,0.0371 -2.76627,0.0865 -2.79205,0.11002 -0.0257,0.0233 -0.10286,0.57784 -0.17128,1.23219 l -0.12433,1.18972 2.76088,-0.0713 c 1.51847,-0.0393 2.80101,-0.11292 2.85009,-0.16391 z m 0.42548,-4.5932 c 0.0201,-0.0235 0.0968,-0.40498 0.16994,-0.8475 l 0.13282,-0.80462 h -2.83737 -2.83739 l -0.0689,0.86529 c -0.0378,0.47592 -0.0253,0.91231 0.0282,0.9698 0.0881,0.0948 5.3254,-0.0823 5.41241,-0.18291 z" />
    </g>
  </g>
</svg>
